<?xml version="1.0" encoding="UTF-8" standalone="no"?>
<!DOCTYPE svg PUBLIC "-//W3C//DTD SVG 1.1//EN" "http://www.w3.org/Graphics/SVG/1.1/DTD/svg11.dtd">
<svg width="100%" height="100%" viewBox="0 0 24 24" version="1.1" xmlns="http://www.w3.org/2000/svg" xmlns:xlink="http://www.w3.org/1999/xlink" xml:space="preserve" xmlns:serif="http://www.serif.com/" style="fill-rule:evenodd;clip-rule:evenodd;stroke-linejoin:round;stroke-miterlimit:2;">
    <g opacity="0.4">
        <path d="M14,6C14,4.895 14.895,4 16,4L18,4C19.105,4 20,4.895 20,6L20,8C20,9.105 19.105,10 18,10L16,10C14.895,10 14,9.105 14,8L14,6Z" style="fill:rgb(74,144,218);fill-rule:nonzero;"/>
        <path d="M4,16C4,14.895 4.895,14 6,14L8,14C9.105,14 10,14.895 10,16L10,18C10,19.105 9.105,20 8,20L6,20C4.895,20 4,19.105 4,18L4,16Z" style="fill:rgb(74,144,218);fill-rule:nonzero;"/>
        <path d="M4,6C4,4.895 4.895,4 6,4L8,4C9.105,4 10,4.895 10,6L10,8C10,9.105 9.105,10 8,10L6,10C4.895,10 4,9.105 4,8L4,6Z" style="fill:rgb(74,144,218);fill-rule:nonzero;"/>
    </g>
    <path d="M14,16C14,14.895 14.895,14 16,14L18,14C19.105,14 20,14.895 20,16L20,18C20,19.105 19.105,20 18,20L16,20C14.895,20 14,19.105 14,18L14,16Z" style="fill:rgb(0,69,141);fill-rule:nonzero;"/>
</svg>
