<?xml version="1.0" encoding="UTF-8" standalone="no"?>
<!DOCTYPE svg PUBLIC "-//W3C//DTD SVG 1.1//EN" "http://www.w3.org/Graphics/SVG/1.1/DTD/svg11.dtd">
<svg width="100%" height="100%" viewBox="0 0 18 21" version="1.1" xmlns="http://www.w3.org/2000/svg" xmlns:xlink="http://www.w3.org/1999/xlink" xml:space="preserve" xmlns:serif="http://www.serif.com/" style="fill-rule:evenodd;clip-rule:evenodd;stroke-linejoin:round;stroke-miterlimit:2;">
    <g transform="matrix(1,0,0,1,0,-0.25)">
        <path d="M13,0.25C13.414,0.25 13.75,0.586 13.75,1L13.75,4C13.75,4.414 13.414,4.75 13,4.75C12.586,4.75 12.25,4.414 12.25,4L12.25,1C12.25,0.586 12.586,0.25 13,0.25Z" style="fill:rgb(199,198,202);"/>
        <path d="M5,0.25C5.414,0.25 5.75,0.586 5.75,1L5.75,4C5.75,4.414 5.414,4.75 5,4.75C4.586,4.75 4.25,4.414 4.25,4L4.25,1C4.25,0.586 4.586,0.25 5,0.25Z" style="fill:rgb(199,198,202);"/>
        <path d="M0,6.5C0,4.291 1.791,2.5 4,2.5L14,2.5C16.209,2.5 18,4.291 18,6.5L18,17C18,19.209 16.209,21 14,21L4,21C1.791,21 0,19.209 0,17L0,6.5Z" style="fill:rgb(199,198,202);fill-opacity:0.4;fill-rule:nonzero;"/>
        <path d="M3.25,8C3.25,7.586 3.586,7.25 4,7.25L14,7.25C14.414,7.25 14.75,7.586 14.75,8C14.75,8.414 14.414,8.75 14,8.75L4,8.75C3.586,8.75 3.25,8.414 3.25,8Z" style="fill:rgb(199,198,202);"/>
        <path d="M3.25,12C3.25,11.586 3.586,11.25 4,11.25L14,11.25C14.414,11.25 14.75,11.586 14.75,12C14.75,12.414 14.414,12.75 14,12.75L4,12.75C3.586,12.75 3.25,12.414 3.25,12Z" style="fill:rgb(199,198,202);"/>
        <path d="M3.25,16C3.25,15.586 3.586,15.25 4,15.25L9,15.25C9.414,15.25 9.75,15.586 9.75,16C9.75,16.414 9.414,16.75 9,16.75L4,16.75C3.586,16.75 3.25,16.414 3.25,16Z" style="fill:rgb(199,198,202);"/>
    </g>
</svg>
