<svg width="25" height="25" viewBox="0 0 25 25" fill="none" xmlns="http://www.w3.org/2000/svg">
<path d="M23.001 12.5689C23.001 11.7056 22.9296 11.0756 22.7748 10.4222H12.7153V14.3189H18.62C18.501 15.2872 17.8582 16.7456 16.4296 17.7255L16.4096 17.856L19.5902 20.2707L19.8106 20.2922C21.8343 18.4606 23.001 15.7655 23.001 12.5689Z" fill="#4285F4"/>
<path d="M12.7147 22.8356C15.6075 22.8356 18.0361 21.9023 19.8099 20.2923L16.429 17.7255C15.5242 18.3439 14.3099 18.7755 12.7147 18.7755C9.88142 18.7755 7.47669 16.9439 6.61947 14.4122L6.49382 14.4227L3.18656 16.9311L3.14331 17.0489C4.90519 20.4789 8.52423 22.8356 12.7147 22.8356Z" fill="#34A853"/>
<path d="M6.6201 14.4123C6.39391 13.759 6.26301 13.0589 6.26301 12.3356C6.26301 11.6122 6.39391 10.9123 6.6082 10.2589L6.6022 10.1198L3.25349 7.57117L3.14393 7.62224C2.41777 9.04559 2.0011 10.644 2.0011 12.3356C2.0011 14.0273 2.41777 15.6256 3.14393 17.0489L6.6201 14.4123Z" fill="#FBBC05"/>
<path d="M12.7148 5.89567C14.7267 5.89567 16.0838 6.74733 16.8576 7.45904L19.8814 4.56569C18.0243 2.87403 15.6076 1.83569 12.7148 1.83569C8.52426 1.83569 4.9052 4.19234 3.14331 7.62231L6.60759 10.259C7.47672 7.72735 9.88146 5.89567 12.7148 5.89567Z" fill="#EB4335"/>
</svg>
