<svg width="100" height="44" viewBox="0 0 100 44" fill="none" xmlns="http://www.w3.org/2000/svg">
<path d="M44.8673 26.0694C43.7827 26.0694 42.7908 25.8554 41.8916 25.4272C41.0068 24.9848 40.2432 24.4068 39.601 23.6932C38.9587 22.9653 38.4592 22.1375 38.1024 21.2099C37.7599 20.2822 37.5886 19.3331 37.5886 18.3626C37.5886 17.3493 37.7742 16.3788 38.1452 15.4511C38.5163 14.5234 39.023 13.7028 39.6652 12.9892C40.3217 12.2756 41.0924 11.7119 41.9772 11.298C42.8764 10.8698 43.854 10.6557 44.9101 10.6557C45.9948 10.6557 46.9796 10.8841 47.8644 11.3408C48.7636 11.7832 49.5271 12.3684 50.1551 13.0962C50.7973 13.8241 51.2897 14.6519 51.6322 15.5796C51.989 16.493 52.1674 17.4278 52.1674 18.384C52.1674 19.3973 51.9819 20.3678 51.6108 21.2955C51.254 22.2232 50.7474 23.0438 50.0909 23.7574C49.4343 24.4567 48.6565 25.0205 47.7574 25.4486C46.8725 25.8625 45.9092 26.0694 44.8673 26.0694ZM40.0291 18.3626C40.0291 19.0762 40.1433 19.7684 40.3717 20.4392C40.6 21.1099 40.9211 21.7022 41.335 22.216C41.7632 22.7298 42.277 23.1437 42.8764 23.4577C43.4758 23.7574 44.1466 23.9072 44.8887 23.9072C45.6594 23.9072 46.3373 23.7503 46.9225 23.4363C47.5219 23.108 48.0286 22.6799 48.4424 22.1518C48.8563 21.6237 49.1703 21.0315 49.3844 20.3749C49.5985 19.7184 49.7055 19.0476 49.7055 18.3626C49.7055 17.6347 49.5913 16.9425 49.363 16.286C49.1346 15.6152 48.8064 15.0301 48.3782 14.5306C47.9643 14.0168 47.4577 13.61 46.8583 13.3103C46.2731 12.9963 45.6166 12.8394 44.8887 12.8394C44.118 12.8394 43.433 13.0035 42.8336 13.3317C42.2341 13.6457 41.7275 14.0596 41.3136 14.5734C40.8997 15.0872 40.5786 15.6795 40.3502 16.3503C40.1362 17.0068 40.0291 17.6775 40.0291 18.3626Z" fill="#333333"/>
<path d="M54.9923 16.864H53.4937V15.0444H54.9923V14.8731C54.9923 14.3593 55.0708 13.8669 55.2278 13.396C55.3847 12.925 55.6202 12.504 55.9342 12.1329C56.2482 11.7618 56.6335 11.4692 57.0902 11.2552C57.547 11.0268 58.0679 10.9126 58.653 10.9126C59.1525 10.9126 59.6235 10.9697 60.066 11.0839C60.5084 11.1981 60.9151 11.3408 61.2862 11.5121C61.6573 11.0982 62.1211 10.7628 62.6777 10.5059C63.2343 10.249 63.898 10.1205 64.6687 10.1205C65.4251 10.1205 66.1244 10.249 66.7666 10.5059C67.4231 10.7485 68.0083 11.0339 68.5221 11.3622L67.5373 13.1177C67.2233 12.8465 66.8237 12.6181 66.3385 12.4326C65.8675 12.2328 65.3894 12.1329 64.9041 12.1329C64.5188 12.1329 64.1834 12.2042 63.898 12.347C63.6268 12.4754 63.3985 12.6538 63.2129 12.8822C63.0417 13.1105 62.9132 13.3674 62.8276 13.6529C62.7562 13.9383 62.7205 14.2309 62.7205 14.5306V15.0444H68.5863V25.9624H66.21V16.864H62.7205V25.9624H60.3657V16.864H57.3471V25.9624H54.9923V16.864ZM60.3657 15.0444C60.3657 14.9445 60.3657 14.816 60.3657 14.659C60.3799 14.4878 60.3942 14.3165 60.4085 14.1452C60.437 13.974 60.4656 13.8098 60.4941 13.6529C60.5369 13.4816 60.5797 13.3531 60.6226 13.2675C60.4085 13.1391 60.1587 13.0534 59.8733 13.0106C59.5878 12.9535 59.3309 12.925 59.1026 12.925C58.7886 12.925 58.5174 12.9821 58.2891 13.0962C58.075 13.1961 57.8966 13.3389 57.7539 13.5244C57.6112 13.6957 57.5041 13.8955 57.4328 14.1238C57.3757 14.3522 57.3471 14.5877 57.3471 14.8303V15.0444H60.3657Z" fill="#333333"/>
<path d="M70.6607 20.3535C70.6607 19.5686 70.7963 18.8264 71.0675 18.1271C71.3386 17.4278 71.724 16.8141 72.2235 16.286C72.7373 15.758 73.351 15.3441 74.0646 15.0444C74.7782 14.7304 75.5774 14.5734 76.4623 14.5734C77.6183 14.5734 78.6102 14.8303 79.438 15.3441C80.28 15.8436 80.908 16.5144 81.3219 17.3564L79.0312 18.0843C78.76 17.6133 78.3961 17.2494 77.9394 16.9925C77.4827 16.7213 76.976 16.5857 76.4194 16.5857C75.9485 16.5857 75.506 16.6785 75.0921 16.864C74.6925 17.0496 74.3429 17.3136 74.0432 17.6561C73.7434 17.9844 73.508 18.3769 73.3367 18.8336C73.1654 19.2903 73.0798 19.7969 73.0798 20.3535C73.0798 20.8959 73.1654 21.4025 73.3367 21.8735C73.5222 22.3302 73.7649 22.7298 74.0646 23.0723C74.3785 23.4149 74.7353 23.686 75.135 23.8858C75.5488 24.0714 75.9841 24.1641 76.4408 24.1641C76.7263 24.1641 77.0117 24.1285 77.2972 24.0571C77.5826 23.9715 77.8395 23.8573 78.0678 23.7146C78.3105 23.5719 78.5174 23.4077 78.6887 23.2222C78.8742 23.0367 79.0098 22.8369 79.0954 22.6228L81.4075 23.3078C81.0364 24.1499 80.4156 24.8421 79.545 25.3844C78.6744 25.9125 77.6468 26.1765 76.4623 26.1765C75.5917 26.1765 74.7996 26.0195 74.086 25.7055C73.3724 25.3915 72.7587 24.9705 72.2449 24.4424C71.7454 23.9001 71.3529 23.2793 71.0675 22.58C70.7963 21.8806 70.6607 21.1385 70.6607 20.3535Z" fill="#333333"/>
<path d="M88.3161 26.1765C87.4455 26.1765 86.6534 26.0266 85.9398 25.7269C85.2262 25.4129 84.6125 24.9919 84.0987 24.4639C83.5992 23.9358 83.2067 23.3221 82.9213 22.6228C82.6501 21.9234 82.5145 21.1813 82.5145 20.3963C82.5145 19.6114 82.6501 18.8692 82.9213 18.1699C83.2067 17.4563 83.5992 16.8355 84.0987 16.3074C84.6125 15.7651 85.2262 15.3441 85.9398 15.0444C86.6534 14.7304 87.4526 14.5734 88.3375 14.5734C89.2081 14.5734 89.993 14.7304 90.6923 15.0444C91.4059 15.3583 92.0125 15.7794 92.512 16.3074C93.0115 16.8212 93.3897 17.4278 93.6466 18.1271C93.9178 18.8122 94.0534 19.5329 94.0534 20.2893C94.0534 20.4606 94.0462 20.6247 94.032 20.7817C94.0177 20.9244 94.0034 21.0457 93.9892 21.1456H85.0192C85.0621 21.6451 85.1762 22.0947 85.3618 22.4943C85.5616 22.8939 85.8113 23.2436 86.111 23.5433C86.425 23.8288 86.7747 24.05 87.16 24.207C87.5596 24.364 87.9735 24.4424 88.4017 24.4424C88.7157 24.4424 89.0225 24.4068 89.3222 24.3354C89.6362 24.2498 89.9217 24.1356 90.1785 23.9929C90.4354 23.8359 90.6638 23.6504 90.8636 23.4363C91.0634 23.2222 91.2204 22.9867 91.3346 22.7298L93.3469 23.3078C92.9616 24.1499 92.3193 24.8421 91.4202 25.3844C90.5353 25.9125 89.5006 26.1765 88.3161 26.1765ZM91.7199 19.5186C91.6771 19.0476 91.5558 18.6124 91.356 18.2127C91.1705 17.8131 90.9278 17.4777 90.6281 17.2066C90.3284 16.9211 89.9787 16.6999 89.5791 16.5429C89.1795 16.3859 88.7585 16.3074 88.3161 16.3074C87.8736 16.3074 87.4526 16.3859 87.053 16.5429C86.6676 16.6999 86.3251 16.9211 86.0254 17.2066C85.7257 17.4777 85.4831 17.8131 85.2975 18.2127C85.112 18.6124 84.9978 19.0476 84.955 19.5186H91.7199Z" fill="#333333"/>
<path d="M44.9315 35.5666C44.9315 35.9177 44.8588 36.2388 44.7132 36.53C44.5762 36.8211 44.3835 37.0694 44.1352 37.275C43.8954 37.4805 43.6128 37.6389 43.2874 37.7502C42.9706 37.8615 42.6281 37.9172 42.2598 37.9172H37.9312V28.7974H42.4654C42.7822 28.7974 43.0691 28.8659 43.326 29.0029C43.5828 29.1399 43.8012 29.3198 43.981 29.5424C44.1609 29.7565 44.2979 30.0048 44.3921 30.2874C44.4948 30.5614 44.5462 30.8397 44.5462 31.1223C44.5462 31.5762 44.4306 31.9958 44.1994 32.3811C43.9768 32.7665 43.6556 33.0533 43.236 33.2417C43.7584 33.3958 44.1694 33.6827 44.4691 34.1023C44.7774 34.5133 44.9315 35.0014 44.9315 35.5666ZM43.7627 35.3611C43.7627 35.1556 43.7241 34.9586 43.6471 34.7702C43.5786 34.5733 43.4801 34.402 43.3516 34.2564C43.2318 34.1109 43.0862 33.9953 42.9149 33.9096C42.7437 33.824 42.5553 33.7812 42.3497 33.7812H39.0872V36.9153H42.2598C42.4739 36.9153 42.6709 36.8725 42.8507 36.7869C43.0305 36.7012 43.1889 36.5899 43.326 36.4529C43.463 36.3073 43.57 36.1403 43.6471 35.952C43.7241 35.7636 43.7627 35.5666 43.7627 35.3611ZM39.0872 29.7993V32.8435H41.9901C42.1956 32.8435 42.384 32.805 42.5553 32.7279C42.7265 32.6423 42.8721 32.531 42.992 32.394C43.1204 32.2569 43.2189 32.0985 43.2874 31.9187C43.3645 31.7303 43.403 31.5334 43.403 31.3278C43.403 31.1138 43.3688 30.9125 43.3003 30.7241C43.2318 30.5357 43.1376 30.373 43.0177 30.236C42.9064 30.099 42.7651 29.992 42.5938 29.9149C42.4311 29.8378 42.2556 29.7993 42.0672 29.7993H39.0872Z" fill="#0074E5"/>
<path d="M48.4369 38.0456C47.7347 38.0456 47.2038 37.8102 46.8441 37.3392C46.4845 36.8682 46.3046 36.166 46.3046 35.2326V31.2122H47.435V35.0143C47.435 36.3844 47.9102 37.0694 48.8607 37.0694C49.3231 37.0694 49.7556 36.9239 50.1581 36.6327C50.5691 36.333 50.8731 35.9263 51.07 35.4125V31.2122H52.2004V36.53C52.2004 36.7954 52.3203 36.9324 52.56 36.941V37.9172C52.4316 37.9343 52.3288 37.9429 52.2518 37.9429C52.1832 37.9515 52.1147 37.9557 52.0462 37.9557C51.8236 37.9557 51.6352 37.8915 51.4811 37.7631C51.3355 37.6261 51.2584 37.4591 51.2499 37.2621L51.2242 36.4786C50.9245 36.9838 50.5306 37.3734 50.0425 37.6475C49.5544 37.9129 49.0192 38.0456 48.4369 38.0456Z" fill="#0074E5"/>
<path d="M56.8449 38.0456C56.3824 38.0456 55.9543 37.9515 55.5604 37.7631C55.1665 37.5747 54.8282 37.3221 54.5456 37.0052C54.2631 36.6884 54.0404 36.3202 53.8777 35.9006C53.7236 35.481 53.6465 35.04 53.6465 34.5776C53.6465 34.1066 53.7193 33.6613 53.8649 33.2417C54.019 32.8136 54.2288 32.4411 54.4943 32.1242C54.7683 31.8074 55.0894 31.559 55.4576 31.3792C55.8344 31.1908 56.2454 31.0966 56.6907 31.0966C57.2302 31.0966 57.7097 31.2379 58.1293 31.5205C58.5575 31.8031 58.8957 32.1456 59.1441 32.5481V28.5405H60.2744V36.53C60.2744 36.7954 60.3943 36.9324 60.6341 36.941V37.9172C60.5142 37.9343 60.4157 37.9472 60.3386 37.9557C60.2701 37.9643 60.2016 37.9686 60.1331 37.9686C59.9105 37.9686 59.7135 37.8958 59.5423 37.7502C59.3796 37.5961 59.2982 37.4205 59.2982 37.2236V36.6584C59.0328 37.0951 58.6774 37.4377 58.2321 37.686C57.7954 37.9258 57.333 38.0456 56.8449 38.0456ZM57.1146 37.0694C57.3201 37.0694 57.5299 37.0309 57.744 36.9538C57.9666 36.8768 58.1722 36.7697 58.3605 36.6327C58.5575 36.4957 58.7245 36.3373 58.8615 36.1575C59.0071 35.9691 59.1013 35.7721 59.1441 35.5666V33.6399C59.067 33.4258 58.9514 33.2246 58.7973 33.0362C58.6431 32.8392 58.4676 32.6723 58.2706 32.5352C58.0822 32.3897 57.8767 32.2784 57.6541 32.2013C57.44 32.1157 57.2259 32.0728 57.0118 32.0728C56.6779 32.0728 56.3739 32.1456 56.0999 32.2912C55.8344 32.4282 55.6032 32.6166 55.4062 32.8564C55.2179 33.0876 55.0723 33.3573 54.9695 33.6656C54.8668 33.9653 54.8154 34.2736 54.8154 34.5904C54.8154 34.9244 54.8753 35.2455 54.9952 35.5538C55.1151 35.8535 55.2778 36.1147 55.4833 36.3373C55.6888 36.5599 55.9286 36.7398 56.2026 36.8768C56.4852 37.0052 56.7892 37.0694 57.1146 37.0694Z" fill="#0074E5"/>
<path d="M64.923 38.0456C64.4606 38.0456 64.0324 37.9515 63.6385 37.7631C63.2446 37.5747 62.9064 37.3221 62.6238 37.0052C62.3412 36.6884 62.1186 36.3202 61.9559 35.9006C61.8017 35.481 61.7247 35.04 61.7247 34.5776C61.7247 34.1066 61.7974 33.6613 61.943 33.2417C62.0972 32.8136 62.307 32.4411 62.5724 32.1242C62.8464 31.8074 63.1676 31.559 63.5358 31.3792C63.9126 31.1908 64.3236 31.0966 64.7689 31.0966C65.3084 31.0966 65.7879 31.2379 66.2075 31.5205C66.6356 31.8031 66.9739 32.1456 67.2222 32.5481V28.5405H68.3526V36.53C68.3526 36.7954 68.4724 36.9324 68.7122 36.941V37.9172C68.5923 37.9343 68.4939 37.9472 68.4168 37.9557C68.3483 37.9643 68.2798 37.9686 68.2113 37.9686C67.9886 37.9686 67.7917 37.8958 67.6204 37.7502C67.4577 37.5961 67.3764 37.4205 67.3764 37.2236V36.6584C67.1109 37.0951 66.7555 37.4377 66.3102 37.686C65.8735 37.9258 65.4111 38.0456 64.923 38.0456ZM65.1927 37.0694C65.3983 37.0694 65.6081 37.0309 65.8221 36.9538C66.0448 36.8768 66.2503 36.7697 66.4387 36.6327C66.6356 36.4957 66.8026 36.3373 66.9396 36.1575C67.0852 35.9691 67.1794 35.7721 67.2222 35.5666V33.6399C67.1452 33.4258 67.0295 33.2246 66.8754 33.0362C66.7213 32.8392 66.5457 32.6723 66.3488 32.5352C66.1604 32.3897 65.9549 32.2784 65.7322 32.2013C65.5181 32.1157 65.3041 32.0728 65.09 32.0728C64.756 32.0728 64.452 32.1456 64.178 32.2912C63.9126 32.4282 63.6813 32.6166 63.4844 32.8564C63.296 33.0876 63.1504 33.3573 63.0477 33.6656C62.9449 33.9653 62.8935 34.2736 62.8935 34.5904C62.8935 34.9244 62.9535 35.2455 63.0734 35.5538C63.1932 35.8535 63.3559 36.1147 63.5615 36.3373C63.767 36.5599 64.0067 36.7398 64.2808 36.8768C64.5634 37.0052 64.8673 37.0694 65.1927 37.0694Z" fill="#0074E5"/>
<path d="M70.5478 39.7412C70.6591 39.7583 70.7705 39.7711 70.8818 39.7797C70.9931 39.7883 71.0787 39.7925 71.1387 39.7925C71.2414 39.7925 71.3313 39.7668 71.4084 39.7155C71.494 39.6726 71.5754 39.5827 71.6525 39.4457C71.7381 39.3087 71.8323 39.116 71.935 38.8677C72.0378 38.6279 72.1662 38.3111 72.3204 37.9172L69.4817 31.2122H70.6506L72.9369 36.9025L75.0178 31.2122H76.0967L72.8342 39.6769C72.7143 39.9766 72.5131 40.2378 72.2305 40.4605C71.9564 40.6917 71.5754 40.8073 71.0873 40.8073C71.0102 40.8073 70.9289 40.803 70.8432 40.7944C70.7662 40.7859 70.6677 40.7687 70.5478 40.743V39.7412Z" fill="#0074E5"/>
<path fill-rule="evenodd" clip-rule="evenodd" d="M27.0685 12.6029C29.6798 12.6029 31.7967 10.486 31.7967 7.87474C31.7967 5.26346 29.6798 3.14661 27.0685 3.14661C24.4573 3.14661 22.3404 5.26346 22.3404 7.87474C22.3404 10.486 24.4573 12.6029 27.0685 12.6029ZM27.0685 10.3446C25.7045 10.3446 24.5987 9.23882 24.5987 7.87474C24.5987 6.51065 25.7045 5.40484 27.0685 5.40484C28.4326 5.40484 29.5384 6.51065 29.5384 7.87474C29.5384 9.23882 28.4326 10.3446 27.0685 10.3446ZM31.7376 38.9031V12.6029L21.2175 20.2861V27.1595L16.4303 29.8498V22.6283L5.91016 29.6417V38.9031H8.27422V30.9069L14.0662 27.0456V38.9031H16.4303V32.5616L21.2175 29.8713V38.9031H23.5816V22.1773L29.3735 18.0993V38.9031H31.7376Z" fill="url(#paint0_linear_597_6389)"/>
<defs>
<linearGradient id="paint0_linear_597_6389" x1="33.6879" y1="39.5532" x2="15.535" y2="1.33966" gradientUnits="userSpaceOnUse">
<stop stop-color="#1E90FF"/>
<stop offset="1" stop-color="#0074E5"/>
</linearGradient>
</defs>
</svg>
