<svg width="194" height="100" viewBox="0 0 194 100" fill="none" xmlns="http://www.w3.org/2000/svg">
<g clip-path="url(#clip0_2713_25474)">
<path d="M156.516 75.0494C155.277 73.2591 153.257 72.2033 151.1 72.2033H132.371L126.496 63.5735C125.256 61.7374 123.191 60.6816 120.987 60.6816H92.9859L90.2317 50.3533C90.0481 49.6647 89.3595 49.2516 88.671 49.4352L84.9069 50.4451C84.2183 50.6287 83.8052 51.3173 83.9888 52.0058L90.7366 77.1609L83.897 91.1615L89.6809 94.0075L97.0254 78.8593C97.1172 78.6298 97.209 78.4003 97.2549 78.1708H151.054C151.238 78.1708 151.421 78.2626 151.559 78.4462L164.504 97.4502L169.415 94.0993L156.516 75.0494ZM120.987 64.262C121.951 64.262 122.869 64.767 123.42 65.5473L127.873 72.1115H96.0614L93.9499 64.2161H120.987V64.262Z" fill="url(#paint0_linear_2713_25474)"/>
<path d="M185.619 98.5515H10.4058C24.1309 90.3807 42.4464 84.3215 60.8536 84.5969C82.8414 84.9182 103.957 90.0135 109.695 92.8136C125.44 91.8496 145.454 87.7183 155.92 88.0396C164.825 88.361 177.77 90.7479 185.619 98.5515Z" fill="#EAEEF9"/>
<path d="M193.01 98.5518H185.619H10.4058H0.85791" stroke="#D5DAE8" stroke-width="0.918069" stroke-miterlimit="10" stroke-linecap="round" stroke-linejoin="round"/>
<path d="M70.7227 89.83C69.7587 89.83 68.8866 89.1413 68.703 88.1775L52.4531 3.85278C52.2236 2.7511 52.9581 1.64942 54.1057 1.4199C55.2073 1.19038 56.309 1.92484 56.5385 3.07242L72.7884 87.3512C73.0179 88.4529 72.2834 89.5546 71.1358 89.7841C70.9522 89.83 70.8604 89.83 70.7227 89.83Z" fill="#ADB6C8"/>
<path d="M43.1348 46.5431C43.1807 46.2676 43.2725 46.0381 43.3643 45.7627C43.4102 46.1758 43.4102 46.589 43.4561 47.0021C43.3643 46.8185 43.2266 46.6808 43.1348 46.5431Z" fill="white"/>
<path d="M79.6284 39.3818C79.5825 39.4277 79.5825 39.5195 79.5825 39.5654C79.5366 39.4277 79.4907 39.29 79.4448 39.1064C79.4907 39.1982 79.5825 39.29 79.6284 39.3818Z" fill="white"/>
<path d="M142.539 40.7036C151.311 40.7036 158.421 33.5928 158.421 24.8211C158.421 16.0493 151.311 8.93848 142.539 8.93848C133.767 8.93848 126.656 16.0493 126.656 24.8211C126.656 33.5928 133.767 40.7036 142.539 40.7036Z" fill="#EAEEF9"/>
<path d="M36.4331 94.4668C38.2233 91.7126 41.9415 92.3553 43.4563 92.9061" stroke="#ADB6C8" stroke-width="0.918069" stroke-miterlimit="10" stroke-linecap="round" stroke-linejoin="round"/>
<path d="M61.6797 91.6205C65.4438 89.2794 70.3555 91.0696 70.7227 92.8599" stroke="#ADB6C8" stroke-width="0.918069" stroke-miterlimit="10" stroke-linecap="round" stroke-linejoin="round"/>
<path d="M77.1953 96.0735C77.838 95.1554 79.3069 94.4669 80.2708 95.1095" stroke="#ADB6C8" stroke-width="0.918069" stroke-miterlimit="10" stroke-linecap="round" stroke-linejoin="round"/>
<path d="M136.87 95.4762C140.68 94.2368 140.863 95.0172 141.827 95.4762" stroke="#ADB6C8" stroke-width="0.918069" stroke-miterlimit="10" stroke-linecap="round" stroke-linejoin="round"/>
<path d="M149.769 94.4665C150.182 93.7321 152.201 94.0534 152.201 94.0534" stroke="#ADB6C8" stroke-width="0.918069" stroke-miterlimit="10" stroke-linecap="round" stroke-linejoin="round"/>
<path d="M108.685 26.6669C104.829 24.7389 100.331 24.0045 95.7406 24.8766C87.7993 26.3455 81.74 32.1294 79.6285 39.3821C79.5826 39.428 79.5826 39.5198 79.5826 39.5657C79.5366 39.428 79.4907 39.2903 79.4448 39.1067C74.8545 33.2769 67.2345 30.0637 59.385 31.5326C51.5355 32.9556 45.5681 38.6476 43.3647 45.7627C43.4106 46.1758 43.4106 46.5889 43.4565 47.0021C43.3647 46.8644 43.227 46.6807 43.1352 46.543C38.5908 40.2543 30.7413 36.8116 22.6164 38.2804C18.3474 39.0608 14.5833 41.1264 11.7373 43.9724C16.6948 24.0963 32.8528 7.89239 54.3357 3.9906C76.0021 -0.00300646 97.0259 9.59082 108.685 26.6669Z" fill="url(#paint1_linear_2713_25474)"/>
<path d="M79.4449 39.1069C74.8545 33.2772 67.2345 30.0639 59.3851 31.5329C51.5356 32.9559 45.5681 38.6479 43.3648 45.763C41.5286 23.1326 45.7976 5.55152 54.3816 3.99081C62.9196 2.43009 73.1102 17.3487 79.4449 39.1069Z" fill="#EAEEF9"/>
</g>
<defs>
<linearGradient id="paint0_linear_2713_25474" x1="126.663" y1="51.0611" x2="126.663" y2="78.0359" gradientUnits="userSpaceOnUse">
<stop stop-color="#C7CFDD"/>
<stop offset="1" stop-color="#B4BDCF"/>
</linearGradient>
<linearGradient id="paint1_linear_2713_25474" x1="60.219" y1="4.61531" x2="60.219" y2="29.2628" gradientUnits="userSpaceOnUse">
<stop stop-color="#C7CFDD"/>
<stop offset="1" stop-color="#B4BDCF"/>
</linearGradient>
<clipPath id="clip0_2713_25474">
<rect width="194" height="99" fill="white" transform="translate(0 0.5)"/>
</clipPath>
</defs>
</svg>
