<svg width="36" height="36" viewBox="0 0 36 36" fill="none" xmlns="http://www.w3.org/2000/svg">
<circle cx="18" cy="18" r="18" fill="#D6E3FF"/>
<path fill-rule="evenodd" clip-rule="evenodd" d="M8.83107 19.8294C8.83107 19.5233 8.8346 18.705 8.82659 18.6041C8.83357 17.3865 7.89439 16.5275 7.30105 16.5945C6.89048 16.6281 6.54632 16.7859 6.36164 17.2399C6.19034 17.663 6.3435 18.2258 6.91281 18.3578C7.5215 18.4996 7.87705 18.6176 8.13431 18.7841C8.44952 18.9879 8.70685 19.3773 8.71369 19.8299" fill="#0060AF"/>
<path fill-rule="evenodd" clip-rule="evenodd" d="M8.57674 19.8302C8.57873 19.4378 8.34637 19.0908 8.04269 18.9043C7.77331 18.7395 7.41167 18.6313 6.82825 18.4917C6.64791 18.4482 6.45926 18.3516 6.40086 18.2285C6.24637 18.3753 6.21831 18.7052 6.24549 18.898C6.27708 19.1211 6.55366 19.4888 6.9701 19.5032C7.22442 19.5128 7.54595 19.4516 7.70015 19.4207C7.96614 19.3665 8.387 19.5236 8.45399 19.8297" fill="#0060AF"/>
<path fill-rule="evenodd" clip-rule="evenodd" d="M9.04633 14.6973C8.34016 14.6973 7.7303 15.1362 7.73243 15.8958C7.73463 16.5346 8.27956 16.8765 8.47408 17.1208C8.76792 17.4888 8.92696 17.9245 8.94342 18.591C8.95634 19.1215 8.95568 19.6454 8.95855 19.8311H9.11436C9.11171 19.6368 9.10466 19.0807 9.11267 18.5746C9.12325 17.9078 9.28802 17.4888 9.582 17.1208C9.77821 16.8765 10.3226 16.5346 10.3238 15.8958C10.3265 15.1362 9.71688 14.6973 9.01144 14.6973" fill="#0060AF"/>
<path fill-rule="evenodd" clip-rule="evenodd" d="M9.22547 19.8294C9.22547 19.5233 9.22179 18.705 9.22965 18.6041C9.22275 17.3865 10.1613 16.5275 10.7552 16.5945C11.1658 16.6281 11.5095 16.7859 11.6948 17.2399C11.8658 17.663 11.7119 18.2258 11.1433 18.3578C10.5342 18.4996 10.1791 18.6176 9.92121 18.7841C9.60636 18.9879 9.36702 19.3773 9.35968 19.8299" fill="#0060AF"/>
<path fill-rule="evenodd" clip-rule="evenodd" d="M9.47951 19.8302C9.4773 19.4378 9.70958 19.0908 10.0124 18.9043C10.2829 18.7395 10.645 18.6313 11.2279 18.4917C11.4086 18.4482 11.597 18.3516 11.6544 18.2285C11.8096 18.3753 11.8376 18.7052 11.8104 18.898C11.7782 19.1211 11.5023 19.4888 11.0866 19.5032C10.8324 19.5128 10.5091 19.4516 10.3556 19.4207C10.0906 19.3665 9.66859 19.5236 9.6013 19.8297" fill="#0060AF"/>
<path fill-rule="evenodd" clip-rule="evenodd" d="M9.6977 21.0972L9.60742 20.4757L9.82552 20.4445C9.87856 20.4378 9.94321 20.4465 9.96907 20.4778C9.99764 20.5105 10.0064 20.5376 10.0119 20.5805C10.0202 20.6337 10.0039 20.6951 9.94042 20.7257V20.7276C10.0112 20.7276 10.0541 20.7755 10.0665 20.8566C10.0683 20.8737 10.0737 20.915 10.0683 20.9495C10.0539 21.0316 10.002 21.058 9.91434 21.0696L9.6977 21.0972ZM9.838 20.9856C9.86386 20.9821 9.89008 20.9808 9.91058 20.9684C9.94202 20.9491 9.93915 20.9078 9.93474 20.8771C9.92387 20.8097 9.90521 20.784 9.82933 20.7946L9.78158 20.8015L9.81185 20.989L9.838 20.9856ZM9.79261 20.6994C9.82148 20.695 9.86056 20.6917 9.87687 20.6659C9.88546 20.6486 9.89634 20.6349 9.88914 20.5966C9.88025 20.5511 9.86431 20.5229 9.80297 20.5338L9.74589 20.5425L9.76844 20.7018L9.79261 20.6994Z" fill="#0060AF"/>
<path fill-rule="evenodd" clip-rule="evenodd" d="M10.6423 20.7225C10.644 20.7341 10.646 20.747 10.6467 20.7585C10.6643 20.8718 10.6423 20.9657 10.5071 20.9915C10.3072 21.0278 10.269 20.9108 10.2338 20.747L10.2151 20.6583C10.1876 20.5015 10.1757 20.3829 10.3706 20.3462C10.4804 20.3274 10.553 20.3686 10.5831 20.4716C10.5878 20.487 10.5937 20.5022 10.5959 20.5177L10.4764 20.5409C10.4626 20.5022 10.4443 20.433 10.3905 20.4388C10.294 20.4498 10.3259 20.563 10.3358 20.6103L10.3717 20.7805C10.3825 20.8319 10.404 20.9141 10.4875 20.8983C10.5553 20.8855 10.5257 20.7859 10.5197 20.745" fill="#0060AF"/>
<path fill-rule="evenodd" clip-rule="evenodd" d="M10.8338 20.911L10.7925 20.2679L10.953 20.2217L11.2897 20.7811L11.1632 20.8167L11.0835 20.6746L10.9431 20.7143L10.9612 20.8759L10.8338 20.911ZM10.9316 20.6107L11.0331 20.583L10.8983 20.3228L10.9316 20.6107Z" fill="#0060AF"/>
<path fill-rule="evenodd" clip-rule="evenodd" d="M6.86766 20.4248C6.91791 20.2733 6.96287 20.1616 7.15467 20.2111C7.2573 20.2382 7.32091 20.2808 7.3179 20.3932C7.31739 20.4182 7.30864 20.4437 7.30292 20.4684L7.18354 20.4374C7.19919 20.3753 7.20911 20.326 7.12801 20.3025C7.03427 20.2782 7.01143 20.3854 6.9985 20.4317L6.94994 20.6002C6.93451 20.6503 6.916 20.7331 6.9985 20.7545C7.06667 20.7717 7.10795 20.7087 7.13263 20.6166L7.04918 20.5957L7.07805 20.4982L7.27441 20.5577L7.18119 20.8826L7.09084 20.8595L7.11118 20.7908H7.10861C7.06696 20.847 7.01627 20.8529 6.97183 20.8448C6.77547 20.7948 6.79597 20.6739 6.84284 20.5122" fill="#0060AF"/>
<path fill-rule="evenodd" clip-rule="evenodd" d="M7.59849 20.6994L7.53936 20.9638L7.40625 20.9367L7.5481 20.3193L7.77502 20.3676C7.90783 20.3947 7.94794 20.4504 7.92914 20.5652C7.91841 20.631 7.88396 20.7019 7.79985 20.6962L7.79897 20.6951C7.87008 20.7186 7.8761 20.7524 7.86369 20.8108C7.85832 20.8357 7.82137 20.9865 7.84686 21.0109L7.84774 21.0295L7.71001 20.9955C7.70428 20.9538 7.72382 20.8786 7.73153 20.8369C7.73924 20.8001 7.75166 20.7481 7.71199 20.7287C7.68099 20.713 7.66938 20.7138 7.63427 20.7062L7.59849 20.6994ZM7.6212 20.6042L7.71082 20.627C7.76525 20.6345 7.79552 20.6079 7.80624 20.5459C7.81594 20.489 7.80338 20.4668 7.75453 20.4558L7.65844 20.4374L7.6212 20.6042Z" fill="#0060AF"/>
<path fill-rule="evenodd" clip-rule="evenodd" d="M8.45223 20.4574L8.58387 20.4718L8.52716 20.9059C8.49961 21.0435 8.44319 21.1036 8.28261 21.0848C8.11923 21.0653 8.08045 20.9952 8.09029 20.8565L8.14744 20.4229L8.28011 20.4371L8.22318 20.8611C8.21708 20.9071 8.20584 20.9753 8.29267 20.9836C8.36973 20.9892 8.38722 20.941 8.39596 20.8811" fill="#0060AF"/>
<path fill-rule="evenodd" clip-rule="evenodd" d="M8.729 21.1089L8.76867 20.4883L9.02152 20.4986C9.14111 20.5042 9.17233 20.5962 9.16866 20.684C9.16514 20.7374 9.14751 20.797 9.09814 20.8293C9.05766 20.8568 9.00558 20.8633 8.95739 20.8611L8.87497 20.8568L8.85851 21.1169L8.729 21.1089ZM8.87873 20.7621L8.94572 20.7656C9.00016 20.7675 9.03623 20.7472 9.04093 20.6718C9.04365 20.5995 9.01456 20.5872 8.94403 20.5843L8.891 20.5826L8.87873 20.7621Z" fill="#0060AF"/>
<path fill-rule="evenodd" clip-rule="evenodd" d="M26.5677 15.2969L25.5625 17.0169C25.183 16.7264 24.7198 16.5127 24.1287 16.5127C22.7298 16.5127 22.1615 17.4956 22.1615 18.188C22.1615 18.702 22.5185 19.4603 23.7632 19.4603C24.2857 19.4603 25.0284 19.1177 25.2422 18.9618L24.248 20.9572C23.7742 21.0464 23.6184 21.1016 23.2173 21.1133C20.9894 21.176 20.0893 19.8858 20.0898 18.5676C20.0914 16.8248 21.735 14.7054 24.4598 14.7054C24.6267 14.7054 24.831 14.7599 25.0056 14.8202L25.1821 14.6074" fill="#0060AF"/>
<path fill-rule="evenodd" clip-rule="evenodd" d="M30.7153 14.6611L30.9999 20.9123H28.8815L28.8803 19.8402H27.4357L26.9604 20.9123H24.6628L27.0648 16.4484L26.5232 16.4451L27.5522 14.6611H30.7153ZM28.8666 16.5729L28.05 18.3911H28.8913L28.8666 16.5729Z" fill="#0060AF"/>
<path fill-rule="evenodd" clip-rule="evenodd" d="M18.7523 14.6626C19.8014 14.6682 20.3942 15.205 20.3942 15.9803C20.3942 16.6953 19.769 17.328 19.0827 17.6552C19.7893 17.9001 19.8504 18.5012 19.8504 18.9264C19.8504 19.9538 18.7569 20.9137 17.3353 20.9137H14.2351L15.4444 16.5121L14.9477 16.5094L15.9631 14.6626C15.9631 14.6626 17.8992 14.6571 18.7523 14.6626ZM17.7231 17.1973C17.9401 17.1973 18.3232 17.1455 18.419 16.7496C18.524 16.3197 18.1644 16.3082 17.9919 16.3082L17.3756 16.3057L17.1607 17.1973H17.7231ZM16.8516 18.3022L16.5679 19.3296H17.2937C17.5791 19.3296 17.9682 19.1959 18.0636 18.8616C18.1578 18.5264 17.8857 18.3022 17.6013 18.3022H16.8516Z" fill="#0060AF"/>
<path fill-rule="evenodd" clip-rule="evenodd" d="M9.07409 21.6812C8.00062 21.6812 6.89754 21.432 5.79587 20.9391L5.76883 20.9266L5.7559 20.9006C5.26152 19.9169 5 18.841 5 17.7882C5 16.737 5.25079 15.7071 5.74547 14.7247L5.75914 14.6986L5.78668 14.6856C6.80579 14.2305 7.90204 14 9.04618 14C10.1119 14 11.2501 14.2566 12.3372 14.7434L12.365 14.7551L12.378 14.7817C12.8817 15.7836 13.1474 16.8593 13.1474 17.8946C13.1474 18.9258 12.8923 19.9567 12.3879 20.9579L12.3746 20.9842L12.3466 20.9964C11.343 21.4442 10.2113 21.6812 9.07409 21.6812ZM5.89794 20.8039C6.96811 21.2785 8.03555 21.5181 9.0742 21.5181C10.1755 21.5181 11.2707 21.2912 12.2458 20.861C12.7301 19.8908 12.9756 18.8922 12.9756 17.8943C12.9756 16.8922 12.7194 15.8499 12.2347 14.8775C11.1797 14.41 10.078 14.1621 9.04629 14.1621C7.93866 14.1621 6.87694 14.3835 5.88868 14.8205C5.41428 15.7727 5.17282 16.7705 5.17282 17.7879C5.17282 18.8072 5.42368 19.8499 5.89794 20.8039Z" fill="#0060AF"/>
</svg>
