<svg width="36" height="36" viewBox="0 0 36 36" fill="none" xmlns="http://www.w3.org/2000/svg">
<circle cx="18" cy="18" r="18" fill="#D6E3FF"/>
<path fill-rule="evenodd" clip-rule="evenodd" d="M6.8547 20.2646L7.96227 21.6361H5.22012L6.8547 20.2646ZM6.50633 19.841L4.36128 21.6405L4.3604 17.215L6.50633 19.841ZM11.6675 15.3848C11.6675 15.3848 11.1966 15.1619 10.6495 15.1945C10.0241 15.2313 9.5009 15.4712 9.20011 15.7876C9.01084 15.9865 8.8016 16.229 8.6965 16.4925C8.54408 16.8735 8.51154 17.3771 8.51154 17.3771C8.51154 17.3771 8.2928 17.1914 8.01874 16.6504C7.7001 16.0212 7.61294 15.6401 7.56975 15.2052C7.53132 14.8236 7.59165 14.4463 7.59165 14.4463H11.6675V15.3848ZM11.6675 16.6394V19.4299C11.6675 19.4299 11.4141 19.5272 11.2074 19.5272C11.0007 19.5272 10.6488 19.4965 10.24 19.2718C9.83415 19.0489 9.60952 18.7792 9.43538 18.5348C9.25877 18.2862 9.11295 17.9416 9.06959 17.6933C9.03476 17.4946 8.99721 16.9991 9.20011 16.5964C9.31023 16.3778 9.60574 16.0032 10.1747 15.9819C10.6385 15.9641 10.8956 16.0861 11.1313 16.2154C11.5799 16.4621 11.6675 16.6394 11.6675 16.6394ZM7.22941 19.2339L7.96459 18.6211C7.73029 18.3218 7.66837 18.209 7.40645 17.8226C7.13829 17.4272 6.91366 16.9921 6.72157 16.4815C6.51366 15.9285 6.46344 15.6181 6.48639 15.2052C6.51515 14.6799 6.63459 14.4463 6.63459 14.4463H4.35938L4.36043 15.6725C4.36043 15.6725 6.10204 17.8551 7.22941 19.2339ZM9.33005 21.6343H11.6675V19.9299C11.6675 19.9299 11.0878 20.1959 10.7109 20.2174C10.4865 20.2305 10.2688 20.2391 9.91739 20.1456C9.5268 20.0418 9.30489 19.9407 8.94289 19.6421C8.65212 19.4026 8.31966 19.0489 8.31966 19.0489L7.58017 19.6655C7.92327 20.0851 8.17665 20.3906 8.25423 20.4728C8.58774 20.8253 8.72908 20.9548 8.9537 21.0804C9.17824 21.2063 9.92847 21.1995 9.92847 21.1995L9.33005 21.6343Z" fill="#E94E0F"/>
<path fill-rule="evenodd" clip-rule="evenodd" d="M29.3458 20.1185C29.3458 20.6123 29.4124 21.424 28.8593 21.6217V21.6546H30.9598V21.6217C30.4071 21.4132 30.4734 20.6123 30.4734 20.1185V15.9824C30.4734 15.4888 30.4071 14.6769 30.9598 14.4685V14.4356H28.8593V14.4685C29.4232 14.6769 29.3458 15.4778 29.3458 15.9824V20.1185ZM21.6438 15.9824L25.4358 20.7549C25.9221 21.3801 26.2651 21.7424 27.0499 22.0055V15.8508C27.0499 15.2365 27.0499 14.7976 27.625 14.4685V14.4356H25.679V14.4685C26.2651 14.7976 26.2538 15.2365 26.2538 15.8508V20.0088L22.2078 14.9402L22.0528 14.7207C21.9756 14.633 21.9314 14.5782 21.8872 14.4466V14.4356H20.2728V14.4685C20.8478 14.7976 20.8478 15.2365 20.8478 15.8508V20.2285C20.8478 20.8427 20.8478 21.2814 20.262 21.6217V21.6546H22.2188V21.6217C21.6328 21.2814 21.6438 20.8427 21.6438 20.2285V15.9824ZM15.4627 17.3429V15.1926L16.2032 15.1156C16.8667 15.0498 17.5741 15.4448 17.5741 16.2019C17.5741 17.1016 16.5459 17.3429 15.8275 17.3429H15.4627ZM15.4627 20.7769V18.067L16.2364 18.0232C17.2093 17.9683 18.2485 18.4292 18.2485 19.4934C18.2485 20.5356 17.3311 20.9525 16.4244 20.8647L15.4627 20.7769ZM14.3349 20.1075C14.3349 20.6123 14.4013 21.4132 13.8484 21.6216V21.6545H15.6726C16.5017 21.6545 17.3753 21.6875 18.149 21.3145C18.8898 20.9633 19.4758 20.2391 19.4758 19.3943C19.4758 18.3194 18.6686 17.661 17.6736 17.4524C18.3038 17.1782 18.779 16.7614 18.779 16.0263C18.779 15.0498 17.928 14.4355 16.4688 14.4355H13.8484V14.4685C14.4125 14.6769 14.3349 15.4778 14.3349 15.9714V20.1075Z" fill="#005B6A"/>
</svg>
