<svg width="78" height="77" viewBox="0 0 78 77" fill="none" xmlns="http://www.w3.org/2000/svg">
<path d="M38.9998 6.41699C21.2898 6.41699 6.9165 20.7903 6.9165 38.5003C6.9165 56.2103 21.2898 70.5837 38.9998 70.5837C56.7098 70.5837 71.0832 56.2103 71.0832 38.5003C71.0832 20.7903 56.7098 6.41699 38.9998 6.41699ZM38.9998 64.167C24.8511 64.167 13.3332 52.6491 13.3332 38.5003C13.3332 24.3516 24.8511 12.8337 38.9998 12.8337C53.1486 12.8337 64.6665 24.3516 64.6665 38.5003C64.6665 52.6491 53.1486 64.167 38.9998 64.167ZM53.7261 24.3195L32.5832 45.4624L24.2736 37.1849L19.7498 41.7087L32.5832 54.542L58.2498 28.8753L53.7261 24.3195Z" fill="#0074E5"/>
</svg>
