<svg width="32" height="32" viewBox="0 0 32 32" fill="none" xmlns="http://www.w3.org/2000/svg">
<rect width="32" height="32" rx="16" fill="white"/>
<path d="M16 25.75C17.1 25.75 18 24.85 18 23.75H14C14 24.85 14.9 25.75 16 25.75ZM22 19.75V14.75C22 11.68 20.37 9.11 17.5 8.43V7.75C17.5 6.92 16.83 6.25 16 6.25C15.17 6.25 14.5 6.92 14.5 7.75V8.43C11.64 9.11 10 11.67 10 14.75V19.75L8.00003 21.75V22.75H24V21.75L22 19.75ZM20 20.75H12V14.75C12 12.27 13.51 10.25 16 10.25C18.49 10.25 20 12.27 20 14.75V20.75ZM11.58 7.83L10.15 6.4C7.75003 8.23 6.17003 11.05 6.03003 14.25H8.03003C8.18003 11.6 9.54003 9.28 11.58 7.83ZM23.97 14.25H25.97C25.82 11.05 24.24 8.23 21.85 6.4L20.43 7.83C22.45 9.28 23.82 11.6 23.97 14.25Z" fill="#005DB9"/>
</svg>
